<svg width="487" height="216" viewBox="0 0 487 216" fill="none" xmlns="http://www.w3.org/2000/svg">
<g clip-path="url(#clip0_11_359)">
<path d="M207.326 137.995H10.0318C7.37208 137.992 4.8222 136.935 2.94153 135.056C1.06086 133.177 0.0029853 130.63 0 127.973V7.63172C0.00224178 5.6084 0.807801 3.66858 2.23995 2.23785C3.67209 0.807116 5.61386 0.00230986 7.63926 0H209.605C211.66 0.00231273 213.631 0.819045 215.084 2.271C216.538 3.72296 217.355 5.69157 217.357 7.74493V127.973C217.354 130.63 216.297 133.177 214.416 135.056C212.535 136.935 209.985 137.992 207.326 137.995Z" fill="white"/>
<path d="M207.326 137.995H10.0318C7.37208 137.992 4.8222 136.935 2.94153 135.056C1.06086 133.177 0.0029853 130.63 0 127.973V7.63172C0.00224178 5.6084 0.807801 3.66858 2.23995 2.23785C3.67209 0.807116 5.61386 0.00230986 7.63926 0H209.605C211.66 0.00231273 213.631 0.819045 215.084 2.271C216.538 3.72296 217.355 5.69157 217.357 7.74493V127.973C217.354 130.63 216.297 133.177 214.416 135.056C212.535 136.935 209.985 137.992 207.326 137.995ZM7.63926 2.16681C6.18894 2.16851 4.79851 2.74483 3.773 3.76934C2.7475 4.79385 2.17065 6.18288 2.16903 7.63172V127.973C2.1714 130.056 3.00056 132.052 4.47459 133.525C5.94862 134.997 7.94716 135.826 10.0318 135.828H207.326C209.41 135.826 211.409 134.997 212.883 133.525C214.357 132.052 215.186 130.056 215.188 127.973V7.74493C215.187 6.26604 214.598 4.84818 213.551 3.80244C212.504 2.75669 211.085 2.16847 209.605 2.16681H7.63926Z" fill="#E6E6E6"/>
<path d="M90.0751 107.526H30.9582C29.5119 107.524 28.1154 106.998 27.0279 106.045C25.9405 105.092 25.2359 103.778 25.0449 102.346C25.009 102.088 24.9918 101.828 24.9934 101.567V36.4275C24.9952 34.8477 25.6242 33.3331 26.7424 32.216C27.8607 31.0989 29.3768 30.4705 30.9582 30.4688H90.0751C91.6565 30.4705 93.1726 31.0989 94.2909 32.216C95.4091 33.3331 96.0381 34.8477 96.0399 36.4275V101.567C96.0381 103.147 95.4091 104.662 94.2909 105.779C93.1726 106.896 91.6565 107.524 90.0751 107.526ZM30.9582 33.719C30.2394 33.7198 29.5502 34.0054 29.042 34.5132C28.5337 35.021 28.2478 35.7094 28.2469 36.4275V101.567C28.2458 101.679 28.2527 101.79 28.2676 101.9C28.3506 102.555 28.6695 103.158 29.1647 103.595C29.6598 104.032 30.2974 104.274 30.9582 104.276H90.0751C90.7939 104.275 91.4831 103.989 91.9913 103.482C92.4996 102.974 92.7855 102.285 92.7864 101.567V36.4275C92.7855 35.7094 92.4996 35.021 91.9913 34.5132C91.4831 34.0054 90.7939 33.7198 90.0751 33.719H30.9582Z" fill="#E6E6E6"/>
<path d="M188.026 86.3452H116.448C115.297 86.3452 114.194 85.8887 113.381 85.0759C112.567 84.2632 112.11 83.161 112.11 82.0116C112.11 80.8623 112.567 79.76 113.381 78.9473C114.194 78.1346 115.297 77.678 116.448 77.678H188.026C189.176 77.678 190.28 78.1346 191.093 78.9473C191.907 79.76 192.364 80.8623 192.364 82.0116C192.364 83.161 191.907 84.2632 191.093 85.0759C190.28 85.8887 189.176 86.3452 188.026 86.3452Z" fill="#E6E6E6"/>
<path d="M155.491 67.9275H116.448C115.297 67.9275 114.194 67.4709 113.381 66.6582C112.567 65.8455 112.11 64.7432 112.11 63.5939C112.11 62.4445 112.567 61.3423 113.381 60.5295C114.194 59.7168 115.297 59.2603 116.448 59.2603H155.491C156.641 59.2603 157.744 59.7168 158.558 60.5295C159.372 61.3423 159.829 62.4445 159.829 63.5939C159.829 64.7432 159.372 65.8455 158.558 66.6582C157.744 67.4709 156.641 67.9275 155.491 67.9275Z" fill="#E6E6E6"/>
<path d="M80.0088 67.207C80.0088 76.7806 71.1475 75.3326 60.2164 75.3326C49.2854 75.3326 40.4241 76.7806 40.4241 67.207C40.4241 57.6335 44.7526 40.6636 60.2164 40.6636C76.213 40.6636 80.0088 57.6335 80.0088 67.207Z" fill="#2F2E41"/>
<path d="M80.8094 83.3192C80.4276 82.2185 79.6665 81.2892 78.6621 80.6974C78.4682 80.5785 78.2651 80.4752 78.0547 80.3886C77.1738 80.0227 76.2052 79.9211 75.2674 80.0962C74.3297 80.2713 73.4633 80.7156 72.7741 81.3747C72.085 82.0338 71.6031 82.8792 71.3872 83.8075C71.1713 84.7358 71.2308 85.7069 71.5584 86.602L79.4429 104.505H89.8271L80.8094 83.3192Z" fill="#3F3D56"/>
<path d="M46.4031 84.2943C45.7799 83.9934 45.1001 83.8276 44.4082 83.8077C43.7164 83.7878 43.0281 83.9142 42.3886 84.1786C41.7491 84.4431 41.1728 84.8396 40.6974 85.3422C40.2221 85.8448 39.8585 86.4421 39.6304 87.0949L32.2883 104.348C32.6643 104.453 33.0529 104.506 33.4432 104.505H42.6563L48.8811 90.3776C49.2963 89.2371 49.2727 87.9832 48.8148 86.8592C48.3569 85.7351 47.4974 84.8211 46.4031 84.2943Z" fill="#3F3D56"/>
<path d="M60.1503 75.3166C67.5058 75.3166 73.4687 69.3599 73.4687 62.0118C73.4687 54.6638 67.5058 48.707 60.1503 48.707C52.7948 48.707 46.8319 54.6638 46.8319 62.0118C46.8319 69.3599 52.7948 75.3166 60.1503 75.3166Z" fill="#FFB8B8"/>
<path d="M78.8951 80.9086C78.8194 80.8382 78.7434 80.7624 78.6621 80.6973C77.7337 79.8611 76.6349 79.2358 75.4413 78.8646C74.2478 78.4933 72.9878 78.3849 71.7483 78.5468L47.2056 81.6507C44.9574 81.9285 42.906 83.0705 41.4866 84.8343C40.0673 86.5981 39.3917 88.8449 39.6032 91.098C39.9395 94.8791 40.4817 99.6515 41.3494 104.505H80.1208L81.5468 87.9507C81.6616 86.6534 81.4828 85.347 81.0238 84.128C80.5648 82.909 79.8373 81.8087 78.8951 80.9086Z" fill="#3F3D56"/>
<path d="M44.7621 60.7066H50.0298L52.3537 54.2062L52.8184 60.7066H55.3362L56.6918 56.9147L56.9629 60.7066H75.6708C75.6708 56.9712 74.1854 53.3888 71.5414 50.7475C68.8974 48.1062 65.3113 46.6223 61.5721 46.6223H58.8608C55.1216 46.6223 51.5356 48.1062 48.8916 50.7475C46.2475 53.3888 44.7621 56.9712 44.7621 60.7066Z" fill="#2F2E41"/>
<path d="M269.643 127.973V7.74493C269.645 5.69157 270.462 3.72296 271.916 2.271C273.369 0.819045 275.34 0.00231273 277.395 0H479.361C481.386 0.00230986 483.328 0.807116 484.76 2.23785C486.192 3.66858 486.998 5.6084 487 7.63172V127.973C486.997 130.63 485.939 133.177 484.058 135.056C482.178 136.935 479.628 137.992 476.968 137.995H279.674C277.015 137.992 274.465 136.935 272.584 135.056C270.703 133.177 269.646 130.63 269.643 127.973Z" fill="white"/>
<path d="M269.643 127.973V7.74493C269.645 5.69157 270.462 3.72296 271.916 2.271C273.369 0.819045 275.34 0.00231273 277.395 0H479.361C481.386 0.00230986 483.328 0.807116 484.76 2.23785C486.192 3.66858 486.998 5.6084 487 7.63172V127.973C486.997 130.63 485.939 133.177 484.058 135.056C482.178 136.935 479.628 137.992 476.968 137.995H279.674C277.015 137.992 274.465 136.935 272.584 135.056C270.703 133.177 269.646 130.63 269.643 127.973ZM277.395 2.16681C275.915 2.16847 274.496 2.75669 273.449 3.80244C272.402 4.84818 271.813 6.26604 271.812 7.74493V127.973C271.814 130.056 272.643 132.052 274.117 133.525C275.591 134.997 277.59 135.826 279.674 135.828H476.968C479.053 135.826 481.051 134.997 482.525 133.525C483.999 132.052 484.829 130.056 484.831 127.973V7.63172C484.829 6.18288 484.252 4.79385 483.227 3.76934C482.201 2.74483 480.811 2.16851 479.361 2.16681H277.395Z" fill="#E6E6E6"/>
<path d="M390.96 101.567V36.4275C390.962 34.8477 391.591 33.3331 392.709 32.216C393.827 31.0989 395.343 30.4705 396.925 30.4688H456.042C457.623 30.4705 459.139 31.0989 460.258 32.216C461.376 33.3331 462.005 34.8477 462.007 36.4275V101.567C462.008 101.828 461.991 102.088 461.955 102.346C461.764 103.778 461.06 105.092 459.972 106.045C458.885 106.998 457.488 107.524 456.042 107.526H396.925C395.343 107.524 393.827 106.896 392.709 105.779C391.591 104.662 390.962 103.147 390.96 101.567ZM396.925 33.719C396.206 33.7198 395.517 34.0054 395.009 34.5132C394.5 35.021 394.214 35.7094 394.214 36.4275V101.567C394.214 102.285 394.5 102.974 395.009 103.482C395.517 103.989 396.206 104.275 396.925 104.276H456.042C456.703 104.274 457.34 104.032 457.835 103.595C458.331 103.158 458.649 102.555 458.732 101.9C458.747 101.79 458.754 101.679 458.753 101.567V36.4275C458.752 35.7094 458.466 35.021 457.958 34.5132C457.45 34.0054 456.761 33.7198 456.042 33.719H396.925Z" fill="#E6E6E6"/>
<path d="M294.636 82.0116C294.637 80.8627 295.095 79.7611 295.908 78.9487C296.721 78.1363 297.824 77.6793 298.974 77.678H370.552C371.703 77.678 372.806 78.1346 373.619 78.9473C374.433 79.76 374.89 80.8623 374.89 82.0116C374.89 83.161 374.433 84.2632 373.619 85.0759C372.806 85.8887 371.703 86.3452 370.552 86.3452H298.974C297.824 86.3439 296.721 85.8869 295.908 85.0745C295.095 84.2621 294.637 83.1606 294.636 82.0116Z" fill="#E6E6E6"/>
<path d="M294.636 63.5939C294.637 62.4449 295.095 61.3434 295.908 60.531C296.721 59.7186 297.824 59.2616 298.974 59.2603H338.017C339.167 59.2603 340.271 59.7168 341.084 60.5295C341.898 61.3423 342.355 62.4445 342.355 63.5939C342.355 64.7432 341.898 65.8455 341.084 66.6582C340.271 67.4709 339.167 67.9275 338.017 67.9275H298.974C297.824 67.9262 296.721 67.4692 295.908 66.6568C295.095 65.8443 294.637 64.7428 294.636 63.5939Z" fill="#E6E6E6"/>
<path d="M411.874 55.7824C415.675 63.249 418.672 70.9501 427.057 70.9501C431.084 70.9501 434.946 69.3521 437.793 66.5076C440.64 63.6631 442.24 59.8051 442.24 55.7824C442.24 51.7597 440.64 47.9017 437.793 45.0572C434.946 42.2127 431.084 40.6147 427.057 40.6147C418.535 40.5081 404.798 41.8848 411.874 55.7824Z" fill="#2F2E41"/>
<path d="M426.31 71.2456C433.665 71.2456 439.628 65.2888 439.628 57.9408C439.628 50.5927 433.665 44.636 426.31 44.636C418.954 44.636 412.991 50.5927 412.991 57.9408C412.991 65.2888 418.954 71.2456 426.31 71.2456Z" fill="#A0616A"/>
<path d="M444.493 82.1925C443.634 81.2581 442.7 80.3957 441.7 79.614C437.328 76.1911 431.849 74.4943 426.305 74.847C426.083 74.8578 425.861 74.874 425.639 74.8957C422.428 75.1521 419.309 76.0885 416.489 77.6428C413.669 79.197 411.213 81.3333 409.284 83.9097C407.325 86.5253 405.948 89.5288 405.245 92.7191C404.541 95.9095 404.528 99.2131 405.206 102.409C405.353 103.086 405.483 103.769 405.608 104.451H449.758L450.268 101.038C450.777 97.6656 450.523 94.2215 449.524 90.9599C448.524 87.6983 446.805 84.7023 444.493 82.1925Z" fill="#3F3D56"/>
<path d="M451.255 85.7515C450.944 83.9714 450.017 82.3568 448.637 81.1888C447.257 80.0208 445.51 79.3734 443.701 79.3594C443.631 79.3594 443.555 79.3648 443.484 79.3648C442.882 79.3786 442.283 79.4622 441.7 79.614C440.72 79.8741 439.801 80.3251 438.996 80.941C438.191 81.5569 437.516 82.3255 437.009 83.2028C436.502 84.0801 436.174 85.0488 436.043 86.0532C435.912 87.0576 435.98 88.078 436.245 89.0559L440.415 104.451H454.449L451.255 85.7515Z" fill="#3F3D56"/>
<path d="M420.373 81.716C419.844 80.6782 419.086 79.7742 418.155 79.0724C417.497 78.5755 416.76 78.1911 415.976 77.9349C415.655 77.8254 415.327 77.7385 414.994 77.6749C413.18 77.332 411.304 77.648 409.703 78.5659C408.102 79.4837 406.882 80.9429 406.264 82.6802L398.629 104.451H413.118L420.509 88.4385C421.001 87.382 421.245 86.2268 421.222 85.0615C421.198 83.8962 420.908 82.7518 420.373 81.716Z" fill="#3F3D56"/>
<path d="M412.177 50.4215C415.22 52.517 418.833 53.6323 422.529 53.6175C421.21 54.5308 419.709 55.1477 418.129 55.4257C423.044 56.4788 428.123 56.5073 433.049 55.5095C434.144 55.3341 435.2 54.9715 436.172 54.4378C436.656 54.1677 437.078 53.7987 437.41 53.355C437.743 52.9112 437.978 52.4026 438.1 51.8622C438.427 49.9941 436.97 48.2969 435.456 47.1531C433.138 45.4286 430.464 44.2404 427.63 43.6746C424.795 43.1088 421.87 43.1794 419.067 43.8814C417.236 44.3542 415.402 45.1529 414.213 46.6217C413.023 48.0905 412.671 50.3549 413.804 51.8673L412.177 50.4215Z" fill="#2F2E41"/>
<path d="M342.147 216H144.853C142.193 215.997 139.643 214.94 137.763 213.062C135.882 211.183 134.824 208.636 134.821 205.979V85.6371C134.824 83.6138 135.629 81.674 137.061 80.2432C138.493 78.8125 140.435 78.0077 142.461 78.0054H344.426C346.481 78.0077 348.452 78.8244 349.905 80.2764C351.359 81.7283 352.176 83.6969 352.179 85.7503V205.979C352.176 208.636 351.118 211.183 349.237 213.062C347.357 214.94 344.807 215.997 342.147 216Z" fill="white"/>
<path d="M342.147 216H144.853C142.193 215.997 139.643 214.94 137.763 213.062C135.882 211.183 134.824 208.636 134.821 205.979V85.6371C134.824 83.6138 135.629 81.674 137.061 80.2432C138.493 78.8125 140.435 78.0077 142.461 78.0054H344.426C346.481 78.0077 348.452 78.8244 349.905 80.2764C351.359 81.7283 352.176 83.6969 352.179 85.7503V205.979C352.176 208.636 351.118 211.183 349.237 213.062C347.357 214.94 344.807 215.997 342.147 216ZM142.461 80.1722C141.01 80.1739 139.62 80.7502 138.594 81.7747C137.569 82.7992 136.992 84.1883 136.99 85.6371V205.979C136.993 208.061 137.822 210.058 139.296 211.53C140.77 213.003 142.768 213.831 144.853 213.833H342.147C344.232 213.831 346.23 213.003 347.704 211.53C349.178 210.058 350.007 208.061 350.01 205.979V85.7503C350.008 84.2714 349.419 82.8536 348.372 81.8078C347.326 80.7621 345.906 80.1738 344.426 80.1722H142.461Z" fill="#3F3D56"/>
<path d="M224.896 185.531H165.78C164.333 185.529 162.937 185.003 161.849 184.05C160.762 183.098 160.057 181.783 159.866 180.351C159.83 180.093 159.813 179.833 159.815 179.572V114.433C159.816 112.853 160.445 111.338 161.564 110.221C162.682 109.104 164.198 108.476 165.78 108.474H224.896C226.478 108.476 227.994 109.104 229.112 110.221C230.23 111.338 230.859 112.853 230.861 114.433V179.572C230.859 181.152 230.23 182.667 229.112 183.784C227.994 184.901 226.478 185.529 224.896 185.531ZM165.78 111.724C165.061 111.725 164.372 112.011 163.863 112.518C163.355 113.026 163.069 113.715 163.068 114.433V179.572C163.067 179.684 163.074 179.795 163.089 179.905C163.172 180.56 163.491 181.163 163.986 181.6C164.481 182.037 165.119 182.279 165.78 182.281H224.896C225.615 182.28 226.304 181.995 226.813 181.487C227.321 180.979 227.607 180.291 227.608 179.572V114.433C227.607 113.715 227.321 113.026 226.813 112.518C226.304 112.011 225.615 111.725 224.896 111.724H165.78Z" fill="#E6E6E6"/>
<path d="M194.48 120.383C190.631 118.594 185.906 118.008 181.99 119.67C178.075 121.332 175.405 125.591 176.671 129.361C177.245 131.071 178.553 132.751 178.043 134.478C177.651 135.806 176.283 136.684 174.94 137.307C173.597 137.931 172.128 138.456 171.156 139.508C170.185 140.56 169.982 142.371 171.196 143.186C171.595 143.455 172.095 143.583 172.483 143.866C172.813 144.134 173.052 144.499 173.165 144.909C173.278 145.319 173.26 145.754 173.114 146.153C172.791 146.957 172.257 147.659 171.568 148.185C170.191 149.372 168.37 150.73 168.798 152.415C168.956 152.865 169.222 153.271 169.571 153.597C169.92 153.923 170.342 154.16 170.802 154.288C171.758 154.563 172.75 154.694 173.745 154.676L214.396 155.955C215.738 156.056 217.087 155.981 218.41 155.731C219.053 155.614 219.664 155.366 220.207 155.002C220.749 154.638 221.21 154.166 221.562 153.616C222.34 152.177 221.829 150.403 220.868 149.059C219.907 147.715 218.546 146.655 217.422 145.421C216.298 144.186 215.378 142.646 215.576 141.05C215.735 139.773 216.578 138.67 217.183 137.51C217.788 136.349 218.139 134.899 217.356 133.832C216.251 132.328 213.599 132.464 212.344 131.062C211.396 130.005 211.579 128.482 211.485 127.118C211.258 123.837 208.984 120.739 205.747 119.3C204.102 118.594 202.311 118.289 200.524 118.411C198.737 118.532 197.005 119.077 195.47 119.999L194.48 120.383Z" fill="#2F2E41"/>
<path d="M195.984 155.641C203.339 155.641 209.302 149.684 209.302 142.336C209.302 134.988 203.339 129.031 195.984 129.031C188.628 129.031 182.665 134.988 182.665 142.336C182.665 149.684 188.628 155.641 195.984 155.641Z" fill="#A0616A"/>
<path d="M213.469 172.823C213.456 170.491 212.81 168.206 211.599 166.212C210.388 164.218 208.658 162.59 206.594 161.501C206.426 161.409 206.252 161.328 206.079 161.247C204.58 160.537 202.957 160.125 201.301 160.033L188.623 159.324C186.833 159.221 185.041 159.496 183.363 160.131C182.955 160.283 182.555 160.456 182.165 160.651C180.94 161.254 179.819 162.049 178.846 163.007C177.565 164.271 176.563 165.788 175.903 167.462C175.244 169.135 174.942 170.928 175.018 172.725L175.246 178.094L176.84 182.227H212.287C212.727 181.695 213.109 181.117 213.426 180.504C214.027 179.314 214.344 178.001 214.351 176.669C214.359 175.336 214.057 174.019 213.469 172.823Z" fill="#3F3D56"/>
<path d="M212.602 165.705C212.023 164.451 211.117 163.377 209.977 162.595C209.155 162.033 208.233 161.632 207.26 161.415C206.871 161.329 206.476 161.273 206.079 161.247C205.296 161.193 204.509 161.261 203.747 161.447C202.608 161.73 201.549 162.268 200.65 163.019C199.75 163.771 199.033 164.717 198.553 165.786C198.073 166.855 197.843 168.019 197.879 169.191C197.915 170.362 198.218 171.509 198.763 172.547L203.638 181.766L203.882 182.227H220.253L212.602 165.705Z" fill="#3F3D56"/>
<path d="M185.809 160.9C185.042 160.51 184.215 160.25 183.363 160.131C182.729 160.04 182.086 160.031 181.449 160.104C179.829 160.287 178.309 160.977 177.105 162.075C175.901 163.174 175.076 164.624 174.747 166.219L171.445 182.227H184.361L186.774 181.241L189.778 169.724C190.215 168.022 190.061 166.221 189.339 164.618C188.618 163.015 187.373 161.704 185.809 160.9Z" fill="#3F3D56"/>
<path d="M182.359 140.444C186.565 140.107 190.057 135.91 189.619 131.717C189.57 133.445 190.158 135.131 191.272 136.454C192.386 137.777 193.948 138.645 195.661 138.892C197.59 139.105 199.705 138.522 201.384 139.494C203.244 140.571 203.839 143.186 205.777 144.116C207.649 145.015 210.027 143.789 210.952 141.931C211.877 140.073 211.65 137.841 211.037 135.859C210.163 133.031 208.571 130.478 206.417 128.448C204.262 126.417 201.618 124.978 198.742 124.27C195.866 123.563 192.855 123.611 190.003 124.41C187.151 125.209 184.554 126.732 182.466 128.83C180.697 130.607 179.293 132.872 179.065 135.368C178.838 137.863 179.996 140.571 182.24 141.692L182.359 140.444Z" fill="#2F2E41"/>
<path d="M322.847 164.351H251.269C250.119 164.351 249.015 163.894 248.202 163.081C247.388 162.269 246.931 161.166 246.931 160.017C246.931 158.868 247.388 157.765 248.202 156.953C249.015 156.14 250.119 155.683 251.269 155.683H322.847C323.998 155.683 325.101 156.14 325.915 156.953C326.728 157.765 327.185 158.868 327.185 160.017C327.185 161.166 326.728 162.269 325.915 163.081C325.101 163.894 323.998 164.351 322.847 164.351Z" fill="#E6E6E6"/>
<path d="M290.312 145.933H251.269C250.119 145.933 249.015 145.476 248.202 144.663C247.388 143.851 246.931 142.748 246.931 141.599C246.931 140.45 247.388 139.347 248.202 138.535C249.015 137.722 250.119 137.265 251.269 137.265H290.312C291.462 137.265 292.566 137.722 293.379 138.535C294.193 139.347 294.65 140.45 294.65 141.599C294.65 142.748 294.193 143.851 293.379 144.663C292.566 145.476 291.462 145.933 290.312 145.933Z" fill="#2E3656"/>
<path d="M311.261 177.581C307.472 177.588 303.84 179.097 301.164 181.775C298.487 184.454 296.983 188.085 296.983 191.87C296.983 195.655 298.487 199.286 301.164 201.965C303.84 204.644 307.472 206.152 311.261 206.159H311.261C315.05 206.152 318.681 204.644 321.358 201.965C324.035 199.286 325.538 195.655 325.538 191.87C325.538 188.085 324.035 184.454 321.358 181.776C318.681 179.097 315.05 177.588 311.261 177.581Z" fill="#2E3656"/>
<path d="M309.904 197.804C309.527 197.805 309.16 197.683 308.859 197.458L308.841 197.444L304.907 194.438C304.54 194.156 304.3 193.74 304.239 193.281C304.179 192.822 304.303 192.358 304.585 191.991C304.867 191.624 305.283 191.383 305.742 191.322C306.202 191.262 306.666 191.385 307.034 191.666L309.582 193.618L315.603 185.771C315.742 185.589 315.916 185.437 316.115 185.322C316.314 185.207 316.533 185.133 316.76 185.103C316.988 185.073 317.219 185.088 317.441 185.147C317.662 185.206 317.87 185.309 318.052 185.448L318.053 185.449L318.015 185.5L318.054 185.449C318.421 185.731 318.662 186.147 318.722 186.606C318.783 187.065 318.659 187.529 318.377 187.896L311.295 197.121C311.132 197.334 310.921 197.506 310.68 197.624C310.439 197.742 310.174 197.803 309.905 197.802L309.904 197.804Z" fill="white"/>
</g>
<defs>
<clipPath id="clip0_11_359">
<rect width="487" height="216" fill="white"/>
</clipPath>
</defs>
</svg>
